SplineFontDB: 3.0
FontName: Figurato
FullName: Figurato
FamilyName: Figurato
Weight: Standard
Copyright: Copyright 2017 Florian Kretlow
Version: 0.1
ItalicAngle: 0
UnderlinePosition: -100
UnderlineWidth: 50
Ascent: 800
Descent: 200
InvalidEm: 0
sfntRevision: 0x00010000
LayerCount: 4
Layer: 0 0 "Back" 1
Layer: 1 0 "Zeichenebene" 0
Layer: 2 0 "Struktur" 0
Layer: 3 0 "Struktur 2" 0
XUID: [1021 864 31587 12318]
FSType: 0
OS2Version: 0
OS2_WeightWidthSlopeOnly: 0
OS2_UseTypoMetrics: 1
CreationTime: 1324930714
ModificationTime: 1528834749
PfmFamily: 17
TTFWeight: 400
TTFWidth: 5
LineGap: 90
VLineGap: 0
OS2TypoAscent: 0
OS2TypoAOffset: 1
OS2TypoDescent: 0
OS2TypoDOffset: 1
OS2TypoLinegap: 90
OS2WinAscent: 0
OS2WinAOffset: 1
OS2WinDescent: 0
OS2WinDOffset: 1
HheadAscent: 0
HheadAOffset: 1
HheadDescent: 0
HheadDOffset: 1
OS2Vendor: 'PfEd'
Lookup: 4 0 0 "BaseLigatures" { "BaseLigatures-1"  } ['ccmp' ('DFLT' <'dflt' > 'latn' <'dflt' > ) ]
Lookup: 262 0 0 "'mkmk' Mark to Mark in Latin lookup 4" { "'mkmk' Mark to Mark in Latin lookup 4-1"  } ['mkmk' ('DFLT' <'dflt' > 'latn' <'dflt' > ) ]
Lookup: 257 0 0 "acc down" { "acc down-1"  } ['    ' ('DFLT' <'dflt' > 'latn' <'dflt' > ) ]
Lookup: 257 0 0 "num up" { "num up-1"  } ['    ' ('DFLT' <'dflt' > 'latn' <'dflt' > ) ]
Lookup: 257 0 0 "B" { "B-1"  } ['    ' ('DFLT' <'dflt' > 'latn' <'dflt' > ) ]
Lookup: 257 0 0 "C" { "C-1"  } ['    ' ('DFLT' <'dflt' > 'latn' <'dflt' > ) ]
Lookup: 257 0 0 "D" { "D-1"  } ['    ' ('DFLT' <'dflt' > 'latn' <'dflt' > ) ]
MarkAttachClasses: 1
DEI: 91125
LangName: 1033
Encoding: UnicodeBmp
UnicodeInterp: none
NameList: Adobe Glyph List
DisplaySize: -72
AntiAlias: 1
FitToEm: 1
WinInfo: 57320 10 8
BeginPrivate: 0
EndPrivate
TeXData: 1 0 0 262144 131072 87381 190841 1048576 87381 783286 444596 497025 792723 393216 433062 380633 303038 157286 324010 404750 52429 2506097 1059062 262144
AnchorClass2: "chainleft" "'mkmk' Mark to Mark in Latin lookup 4-1" "chain" "'mkmk' Mark to Mark in Latin lookup 4-1" "acc""" 

StartChar: zero
Encoding: 48 48 0
Width: 0
VWidth: 0
Flags: HMW
AnchorPoint: "chain" 225.5 365 basemark 0
AnchorPoint: "chain" 225.5 0 mark 0
LayerCount: 4
Fore
SplineSet
0 140 m 0
 0 221 39 285 101 285 c 0
 163 285 202 221 202 140 c 0
 202 59 163 -4 101 -4 c 0
 39 -4 0 59 0 140 c 0
101 263 m 3
 62 263 48 211 48 150 c 2
 48 128 l 2
 48 67 62 18 101 18 c 3
 140 18 153 67 153 128 c 2
 153 150 l 2
 153 211 140 263 101 263 c 3
EndSplineSet
Validated: 1048577
Position2: "D-1" dx=0 dy=1095 dh=0 dv=0
Position2: "C-1" dx=0 dy=730 dh=0 dv=0
Position2: "B-1" dx=0 dy=365 dh=0 dv=0
EndChar

StartChar: one
Encoding: 49 49 1
Width: 0
VWidth: 0
Flags: HMW
AnchorPoint: "chain" 209 0 mark 0
AnchorPoint: "chain" 209 365 basemark 0
LayerCount: 4
Fore
SplineSet
120 56 m 2
 120 30 138 21 156 21 c 2
 169 21 l 17
 169 0 l 9
 21 0 l 17
 21 21 l 9
 39 21 l 2
 57 21 80 32 80 57 c 2
 80 202 l 2
 80 210 74 214 68 214 c 0
 65 214 62 213 60 211 c 2
 12 171 l 1
 0 186 l 9
 90 281 l 17
 120 281 l 9
 120 56 l 2
EndSplineSet
Validated: 1048577
Position2: "D-1" dx=0 dy=1095 dh=0 dv=0
Position2: "C-1" dx=0 dy=730 dh=0 dv=0
Position2: "B-1" dx=0 dy=365 dh=0 dv=0
EndChar

StartChar: two
Encoding: 50 50 2
Width: 0
VWidth: 0
Flags: HMW
AnchorPoint: "chain" 227.5 0 mark 0
AnchorPoint: "chain" 227.5 365 basemark 0
LayerCount: 4
Fore
SplineSet
206 66 m 1
 204 28 188 -4 148 -4 c 0
 112 -4 88 36 58 36 c 0
 39 36 30 24 20 0 c 1
 0 0 l 1
 4 42 46 95 82 118 c 0
 134 154 158 179 158 209 c 0
 158 246 132 263 102 263 c 0
 74 263 54 248 54 235 c 0
 54 224 68 223 68 202 c 0
 68 184 58 175 42 175 c 0
 24 175 10 188 10 208 c 0
 10 240 46 285 108 285 c 0
 162 285 206 253 206 207 c 0
 206 159 166 140 128 119 c 0
 118 113 82 93 58 62 c 1
 63 63.8571428571 67.7142857143 64.6530612245 72.2274052478 64.6530612245 c 0
 99.306122449 64.6530612245 119.142857143 36 150 36 c 0
 172 36 180 50 188 71 c 1
 206 66 l 1
EndSplineSet
Validated: 1048577
Position2: "D-1" dx=0 dy=1095 dh=0 dv=0
Position2: "C-1" dx=0 dy=730 dh=0 dv=0
Position2: "B-1" dx=0 dy=365 dh=0 dv=0
EndChar

StartChar: three
Encoding: 51 51 3
Width: 0
VWidth: 0
Flags: HMW
AnchorPoint: "chain" 225.5 0 mark 0
AnchorPoint: "chain" 225.5 365 basemark 0
LayerCount: 4
Fore
SplineSet
28 98 m 0
 44 98 56 86 56 70 c 0
 56 57 48 49 48 41 c 0
 48 29 70 17 94 17 c 0
 126 17 156 37 156 75 c 0
 156 110 126 133 68 133 c 2
 54 133 l 1
 54 154 l 1
 68 154 l 2
 120 154 154 178 154 214 c 0
 154 246 128 265 94 265 c 0
 68 265 54 253 54 244 c 0
 54 236 66 232 66 212 c 0
 66 199 54 188 38 188 c 0
 24 188 12 200 12 220 c 0
 12 251 48 285 102 285 c 0
 152 285 198 257 198 215 c 0
 198 185 176 161 148 151 c 0
 144 150 140 150 140 146 c 0
 140 143 142 143 146 141 c 0
 178 129 202 105 202 74 c 0
 202 36 166 -4 100 -4 c 0
 40 -4 0 34 0 66 c 0
 0 86 12 98 28 98 c 0
EndSplineSet
Validated: 1048577
Position2: "D-1" dx=0 dy=1095 dh=0 dv=0
Position2: "C-1" dx=0 dy=730 dh=0 dv=0
Position2: "B-1" dx=0 dy=365 dh=0 dv=0
EndChar

StartChar: four
Encoding: 52 52 4
Width: 0
VWidth: 0
Flags: HMW
AnchorPoint: "chain" 233.5 0 mark 0
AnchorPoint: "chain" 233.5 365 basemark 0
LayerCount: 4
Fore
SplineSet
172 83 m 1
 172 48 l 2
 172 29 192 20 206 20 c 1
 206 0 l 1
 85 0 l 1
 85 20 l 1
 95 20 l 2
 109 20 131 27 131 48 c 2
 131 83 l 1
 0 83 l 1
 0 103 l 1
 35 161 59 215 76 281 c 1
 137 281 l 1
 105 216 79 182 30 106 c 1
 131 106 l 1
 131 157 l 1
 172 201 l 1
 172 106 l 1
 218 106 l 1
 218 83 l 1
 172 83 l 1
EndSplineSet
Validated: 1048577
Position2: "D-1" dx=0 dy=1095 dh=0 dv=0
Position2: "C-1" dx=0 dy=730 dh=0 dv=0
Position2: "B-1" dx=0 dy=365 dh=0 dv=0
EndChar

StartChar: five
Encoding: 53 53 5
Width: 0
VWidth: 0
Flags: HMW
AnchorPoint: "chain" 224.5 0 mark 0
AnchorPoint: "chain" 224.5 365 basemark 0
LayerCount: 4
Fore
SplineSet
95 -4 m 0
 37 -4 0 34 0 64 c 0
 0 85 13 97 31 97 c 0
 49 97 60 84 60 67 c 0
 60 48 51 48 51 37 c 0
 51 29 63 18 87 18 c 0
 123 18 155 43 155 93 c 0
 155 138 125 155 89 156 c 0
 66 156 48 149 34 136 c 1
 21 143 l 9
 23 281 l 1
 52 278 75 276 99 276 c 0
 122 276 145 277 173 281 c 1
 178 274 l 1
 161 246 138 232 92 232 c 3
 76 232 62 234 44 236 c 9
 43 168 l 17
 58 174 69 180 98 180 c 0
 149 180 200 150 200 92 c 0
 200 34 154 -4 95 -4 c 0
EndSplineSet
Validated: 1048577
Position2: "D-1" dx=0 dy=1095 dh=0 dv=0
Position2: "C-1" dx=0 dy=730 dh=0 dv=0
Position2: "B-1" dx=0 dy=365 dh=0 dv=0
EndChar

StartChar: six
Encoding: 54 54 6
Width: 0
VWidth: 0
Flags: HMW
AnchorPoint: "chain" 223.5 0 mark 0
AnchorPoint: "chain" 223.5 365 basemark 0
LayerCount: 4
Fore
SplineSet
158 200 m 0
 141 200 130 212 130 228 c 0
 130 236 133 242 133 250 c 0
 133 257 125 264 111 264 c 3
 56 264 43 192 43 132 c 1
 57 153 84 168 112 168 c 0
 167 168 198 130 198 86 c 0
 198 34 161 -4 106 -4 c 0
 31 -4 0 66 0 138 c 0
 0 233 55 285 110 285 c 3
 159 285 187 258 187 231 c 0
 187 214 176 200 158 200 c 0
106 145 m 0
 74 145 48 117 48 80 c 3
 48 41 69 18 100 18 c 0
 138 18 157 47 157 85 c 0
 157 121 137 145 106 145 c 0
EndSplineSet
Validated: 1048577
Position2: "D-1" dx=0 dy=1095 dh=0 dv=0
Position2: "C-1" dx=0 dy=730 dh=0 dv=0
Position2: "B-1" dx=0 dy=365 dh=0 dv=0
EndChar

StartChar: seven
Encoding: 55 55 7
Width: 0
VWidth: 0
Flags: HMW
AnchorPoint: "chain" 216.5 0 mark 0
AnchorPoint: "chain" 216.5 365 basemark 0
LayerCount: 4
Back
SplineSet
24 281 m 1
 25 266 27 249 37 249 c 3
 56 249 62 285 94 285 c 0
 121 285 132 260 152 260 c 0
 165 260 175 264 182 281 c 1
 204 281 l 1
 158 135 122 119 99 0 c 1
 33 0 l 1
 75 102 128 153 168 236 c 1
 157 229 150 225 130 225 c 3
 110 225 102 239 81 239 c 3
 57 239 27 224 19 185 c 1
 0 185 l 1
 4 281 l 1
 24 281 l 1
EndSplineSet
Fore
SplineSet
24 281 m 5
 25 266 27 249 37 249 c 7
 56 249 62 285 94 285 c 4
 121 285 132 260 152 260 c 4
 165 260 175 264 182 281 c 5
 204 281 l 5
 158 135 122 119 99 0 c 5
 33 0 l 5
 75 102 127 151 167 234 c 5
 156 226 149 220 133 220 c 7
 112 220 104 239 76 239 c 7
 59 239 27 224 19 185 c 5
 0 185 l 5
 4 281 l 5
 24 281 l 5
EndSplineSet
Validated: 1048577
Position2: "D-1" dx=0 dy=1095 dh=0 dv=0
Position2: "C-1" dx=0 dy=730 dh=0 dv=0
Position2: "B-1" dx=0 dy=365 dh=0 dv=0
EndChar

StartChar: eight
Encoding: 56 56 8
Width: 0
VWidth: 1610
Flags: HMW
AnchorPoint: "chain" 222.5 0 mark 0
AnchorPoint: "chain" 222.5 365 basemark 0
LayerCount: 4
Fore
SplineSet
44 223 m 0xd8
 44 192 81 174 116 158 c 1
 146 173 156 196 156 214 c 0
 156 241 134 261 100 261 c 0
 69 261 44 247 44 223 c 0xd8
160 63 m 0xe4
 160 100 113 115 81 129 c 1
 54 122 30 99 30 72 c 0
 30 45 56 21 101 21 c 0
 136 21 160 41 160 63 c 0xe4
55 143 m 1
 35 155 8 178 8 210 c 0
 8 248 44 285 100 285 c 0
 153 285 187 251 187 212 c 0xd8
 187 186 170 165 142 147 c 1
 169 131 196 109 196 77 c 0
 196 27 155 -4 101 -4 c 0
 41 -4 0 28 0 70 c 0
 0 101 25 129 55 143 c 1
EndSplineSet
Validated: 1048577
Position2: "D-1" dx=0 dy=1095 dh=0 dv=0
Position2: "C-1" dx=0 dy=730 dh=0 dv=0
Position2: "B-1" dx=0 dy=365 dh=0 dv=0
EndChar

StartChar: nine
Encoding: 57 57 9
Width: 0
VWidth: 0
Flags: HMW
AnchorPoint: "chain" 223.5 0 mark 0
AnchorPoint: "chain" 223.5 365 basemark 0
LayerCount: 4
Fore
SplineSet
2 45 m 0
 2 62 12 75 31 75 c 0
 46 75 57 66 58 49 c 0
 59 30 64 19 82 19 c 3
 142 19 154 115 155 149 c 1
 141 128 114 113 86 113 c 0
 31 113 0 151 0 200 c 0
 0 245 37 285 92 285 c 0
 165 285 198 221 198 153 c 0
 198 58 138 -4 78 -4 c 3
 28 -4 2 20 2 45 c 0
92 136 m 0
 124 136 151 164 151 201 c 3
 151 240 129 263 98 263 c 0
 60 263 41 234 41 201 c 0
 41 160 61 136 92 136 c 0
EndSplineSet
Validated: 1048577
Position2: "D-1" dx=0 dy=1095 dh=0 dv=0
Position2: "C-1" dx=0 dy=730 dh=0 dv=0
Position2: "B-1" dx=0 dy=365 dh=0 dv=0
EndChar

StartChar: bracketleft
Encoding: 91 91 10
Width: 90
VWidth: 1145
Flags: MW
LayerCount: 4
Back
SplineSet
24 -56 m 5xe4
 0 -56 l 5
 0 348 l 5
 24 348 l 5
 24 -56 l 5xe4
0 -56 m 1xe4
 0 -32 l 1
 110 -32 l 1
 110 -56 l 1
 0 -56 l 1xe4
0 324 m 1xe4
 0 348 l 1
 110 348 l 1
 110 324 l 1
 0 324 l 1xe4
EndSplineSet
Fore
SplineSet
24 -32 m 1
 110 -32 l 1
 110 -56 l 1
 0 -56 l 1
 0 348 l 1
 110 348 l 1
 110 324 l 1
 24 324 l 1
 24 -32 l 1
EndSplineSet
Validated: 1
EndChar

StartChar: bracketright
Encoding: 93 93 11
Width: 90
VWidth: 1145
Flags: HMW
LayerCount: 4
Fore
SplineSet
66 324 m 1
 -20 324 l 1
 -20 348 l 1
 90 348 l 1
 90 -56 l 1
 -20 -56 l 1
 -20 -32 l 1
 66 -32 l 1
 66 324 l 1
EndSplineSet
Validated: 1
EndChar

StartChar: b
Encoding: 98 98 13
Width: 0
VWidth: 0
Flags: HMW
AnchorPoint: "chain" -50 365 basemark 0
AnchorPoint: "chain" -50 365 mark 0
LayerCount: 4
Back
SplineSet
24 338 m 5
 24 136 l 5
 36 148 55 169 84 169 c 4
 111 169 139 152 139 114 c 4
 139 38 64 32 12 -23 c 5
 3 -23 l 5
 3 338 l 5
 24 338 l 5
24 13 m 5
 58 42 93 61 93 99 c 4
 93 125 80 138 64 138 c 4
 41 138 25 109 25 109 c 5
 24 13 l 5
EndSplineSet
Fore
SplineSet
22 328 m 1
 22 143 l 1
 34 156 54 177 84 177 c 0
 112 177 140 160 140 120 c 0
 140 42 64 35 10 -23 c 1
 0 -23 l 1
 0 328 l 1
 22 328 l 1
22 13 m 1
 57 44 97 66 97 106 c 0
 97 134 84 147 67 147 c 0
 43 147 23 115 23 115 c 1
 22 13 l 1
EndSplineSet
Validated: 1048577
Position2: "acc down-1" dx=0 dy=-40 dh=0 dv=0
Position2: "B-1" dx=0 dy=365 dh=0 dv=0
EndChar

StartChar: n
Encoding: 110 110 14
Width: 0
VWidth: 0
Flags: HMW
AnchorPoint: "chain" -50 365 mark 0
AnchorPoint: "chain" -50 365 basemark 0
LayerCount: 4
Back
SplineSet
-22 332 m 5
 -2 332 l 5
 -2 209 l 5
 81 231 l 5
 81 -81 l 5
 61 -81 l 5
 61 41 l 5
 -22 19 l 5
 -22 332 l 5
-4 163 m 5
 -4 68 l 5
 61 88 l 5
 61 182 l 5
 -4 163 l 5
EndSplineSet
Fore
SplineSet
0 322 m 1
 22 322 l 1
 22 208 l 1
 114 231 l 1
 114 -71 l 1
 92 -71 l 1
 92 40 l 1
 0 19 l 1
 0 322 l 1
22 164 m 1
 22 69 l 1
 92 87 l 1
 92 181 l 1
 22 164 l 1
EndSplineSet
Validated: 1048577
Position2: "acc down-1" dx=0 dy=-40 dh=0 dv=0
Position2: "B-1" dx=0 dy=365 dh=0 dv=0
EndChar

StartChar: x
Encoding: 120 120 15
Width: 0
VWidth: 0
Flags: HMW
AnchorPoint: "chain" -40 365 mark 0
AnchorPoint: "chain" -40 365 basemark 0
LayerCount: 4
Fore
SplineSet
88 69 m 0
 69 69 49 38 49 4 c 1
 0 1 l 1
 3 50 l 1
 37 50 66 71 66 90 c 0
 66 109 37 129 3 129 c 1
 0 178 l 1
 49 176 l 1
 49 142 69 113 88 113 c 0
 107 113 127 142 127 176 c 1
 176 178 l 1
 173 129 l 1
 139 129 110 109 110 90 c 0
 110 71 139 50 173 50 c 1
 176 1 l 1
 127 4 l 1
 127 38 107 69 88 69 c 0
EndSplineSet
Validated: 1048577
Position2: "acc down-1" dx=0 dy=-40 dh=0 dv=0
Position2: "B-1" dx=0 dy=365 dh=0 dv=0
EndChar

StartChar: quotedbl
Encoding: 34 34 16
Width: 1000
VWidth: 0
LayerCount: 4
Back
SplineSet
88 198 m 0x78
 88 180 77 168 60 168 c 0
 42 168 26 183 26 207 c 0
 26 244 64 285 124 285 c 0
 174 285 217 255 217 209 c 0
 217 161 176 143 141 121 c 0
 119 107 99 91 82 71 c 0
 75 64 79 52 88 52 c 0x78
 109 51 133 43 158 43 c 0
 180 43 194 59 196 84 c 1
 214 84 l 1
 221 52 213 -4 155 -4 c 0xb4
 115 -4 100 21 72 21 c 0
 58 21 47 12 43 0 c 1
 25 0 l 1
 28 42 66 95 98 119 c 0
 146 156 165 181 165 211 c 0
 165 248 139 266 109 266 c 0
 92 266 76 258 64 247 c 0
 60 242 59 239 59 236 c 0
 59 226 88 230 88 198 c 0x78
EndSplineSet
Fore
Validated: 1
EndChar

StartChar: percent
Encoding: 37 37 17
Width: 1000
VWidth: 0
LayerCount: 4
Back
SplineSet
94 15 m 7xf4
 124 15 149 33 149 86 c 4
 149 125 129 146 103 146 c 4
 83 146 64 136 52 117 c 5
 40 122 l 13
 40 281 l 5
 206 281 l 5
 193 237 114 225 60 234 c 13
 60 151 l 21xec
 75 159 90 166 117 166 c 4
 160 166 204 141 204 86 c 4
 204 31 157 -4 106 -4 c 7
 58 -4 25 17 25 50 c 4
 25 67 38 81 55 81 c 4
 72 81 84 67 84 50 c 4
 84 39 73 32 73 23 c 4
 73 19 78 15 94 15 c 7xf4
EndSplineSet
Fore
Validated: 1
EndChar

StartChar: numbersign
Encoding: 35 35 18
Width: 0
VWidth: 0
Flags: HMW
AnchorPoint: "chain" -40 365 mark 0
AnchorPoint: "chain" -40 365 basemark 0
LayerCount: 4
Back
SplineSet
31 314 m 5
 52 314 l 5
 52 216 l 5
 99 231 l 5
 99 331 l 5
 120 331 l 5
 120 239 l 5
 146 247 l 5
 146 205 l 5
 120 197 l 5
 120 98 l 5
 146 106 l 5
 146 65 l 5
 120 56 l 5
 120 -46 l 5
 99 -46 l 5
 99 49 l 5
 52 34 l 5
 52 -65 l 5
 31 -65 l 5
 31 27 l 5
 5 19 l 5
 5 60 l 5
 31 68 l 5
 31 167 l 5
 5 159 l 5
 5 201 l 5
 31 208 l 5
 31 314 l 5
99 190 m 5
 52 175 l 5
 52 75 l 5
 99 90 l 5
 99 190 l 5
EndSplineSet
Fore
SplineSet
26 304 m 1
 48 304 l 1
 48 216 l 1
 102 234 l 1
 102 324 l 1
 124 324 l 1
 124 242 l 1
 150 250 l 1
 150 208 l 1
 124 200 l 1
 124 101 l 1
 150 109 l 1
 150 68 l 1
 124 59 l 1
 124 -33 l 1
 102 -33 l 1
 102 52 l 1
 48 34 l 1
 48 -55 l 1
 26 -55 l 1
 26 27 l 1
 0 19 l 1
 0 60 l 1
 26 68 l 1
 26 167 l 1
 0 159 l 1
 0 201 l 1
 26 208 l 1
 26 304 l 1
102 193 m 1
 48 175 l 1
 48 75 l 1
 102 93 l 1
 102 193 l 1
EndSplineSet
Validated: 1048577
Position2: "acc down-1" dx=0 dy=-40 dh=0 dv=0
Position2: "B-1" dx=0 dy=365 dh=0 dv=0
EndChar

StartChar: hyphen
Encoding: 45 45 19
Width: 0
Flags: HMW
LayerCount: 4
Fore
SplineSet
-125 103 m 1
 -125 131 l 1
 125 131 l 1
 125 103 l 1
 -125 103 l 1
EndSplineSet
Validated: 1
EndChar

StartChar: uni001A
Encoding: 26 26 20
Width: 0
LayerCount: 4
Back
SplineSet
0 208 m 4
 0 216 1 216 16 216 c 4
 29 216 30 216 30 208 c 4
 30 121 l 4
 30 92 36 91 58 97 c 4
 117 114 l 4
 136 119 141 118 141 103 c 4
 141 -207 l 4
 141 -215 139 -216 125 -216 c 4
 110 -216 111 -215 111 -206 c 4
 111 -120 l 4
 111 -92 107 -91 83 -97 c 4
 25 -114 l 4
 3 -120 0 -119 0 -103 c 4
 0 208 l 4
113 29 m 4
 113 54 105 54 86 48 c 4
 51 37 l 4
 29 31 28 27 28 -2 c 4
 28 -29 l 4
 28 -53 35 -53 54 -47 c 4
 90 -37 l 4
 111 -31 113 -25 113 3 c 4
 113 29 l 4
EndSplineSet
Fore
Validated: 1
EndChar

StartChar: parenleft
Encoding: 40 40 21
Width: 93
VWidth: 1140
Flags: MW
LayerCount: 4
Back
SplineSet
37 140 m 4
 37 210 52 267 103 329 c 5
 88 340 l 5
 36 291 0 217 0 140 c 4
 0 63 36 -11 88 -60 c 5
 103 -49 l 5
 52 13 37 70 37 140 c 4
EndSplineSet
Fore
SplineSet
33 140 m 0
 33 60 47 12 98 -50 c 1
 88 -60 l 1
 36 -11 0 63 0 140 c 0
 0 217 36 291 88 340 c 1
 98 330 l 1
 47 268 33 220 33 140 c 0
EndSplineSet
Validated: 1
EndChar

StartChar: parenright
Encoding: 41 41 22
Width: 93
VWidth: 1140
Flags: HMW
LayerCount: 4
Fore
SplineSet
60 140 m 0
 60 220 46 268 -5 330 c 1
 5 340 l 1
 57 291 93 217 93 140 c 0
 93 63 57 -11 5 -60 c 1
 -5 -50 l 1
 46 12 60 60 60 140 c 0
EndSplineSet
Validated: 1
EndChar

StartChar: asciicircum
Encoding: 94 94 26
Width: 1000
VWidth: 0
LayerCount: 4
Back
SplineSet
92 150 m 0xf8
 101 157 118 165 137 165 c 0xf8
 187 165 212 132 212 88 c 0xf4
 212 36 176 -4 120 -4 c 0
 51 -4 25 61 25 131 c 0
 25 228 76 285 137 285 c 0
 167 285 199 267 199 238 c 0
 199 220 184 205 167 205 c 0
 150 205 137 218 137 235 c 0
 137 250 142 252 142 259 c 0
 142 265 138 267 134 267 c 0
 104 267 77 217 75 156 c 0
 75 149 83 142 92 150 c 0xf8
129 146 m 0
 99 146 78 115 78 78 c 3
 78 46 93 14 120 14 c 0
 152 14 163 39 163 87 c 0xf4
 163 119 161 146 129 146 c 0
EndSplineSet
Fore
Validated: 1
EndChar

StartChar: uni001D
Encoding: 29 29 27
Width: 0
VWidth: 0
LayerCount: 4
Back
SplineSet
46 339 m 5
 46 297 43 195 43 148 c 4
 43 145 43 142 46 142 c 4
 50 142 73 169 101 169 c 4
 127 169 154 153 154 115 c 4
 154 99 148 79 144 73 c 4
 141 68 136 61 126 51 c 4
 115 40 83 24 64 10 c 4
 50 -1 31 -19 23 -19 c 4
 21 -19 20 -18 20 -14 c 4
 20 104 20 230 19 340 c 5
 19 340 24 342 32 342 c 4
 48 342 46 339 46 339 c 5
41 15 m 5
 69 41 103 56 103 105 c 4
 103 125 91 139 76 139 c 4
 57 139 43 109 43 109 c 5
 43 109 41 89 41 72 c 6
 41 15 l 5
EndSplineSet
Fore
Validated: 1
EndChar

StartChar: uni001E
Encoding: 30 30 28
Width: 0
VWidth: 0
LayerCount: 4
Back
SplineSet
55 271 m 5
 55 271 60 271 65 271 c 4
 71 271 76 270 76 270 c 5
 76 259 76 207 76 196 c 4
 76 186 75 180 82 180 c 4
 86 180 100 184 105 186 c 4
 113 189 128 190 128 204 c 4
 128 226 126 267 126 289 c 5
 126 289 130 291 135 291 c 4
 142 291 148 289 148 289 c 5
 148 286 147 267 147 256 c 4
 147 207 148 203 156 203 c 4
 164 203 168 207 169 207 c 4
 170 207 175 206 175 204 c 6
 175 156 l 6
 175 152 173 151 161 147 c 4
 152 145 147 142 147 138 c 6
 147 60 l 6
 147 56 150 51 155 51 c 4
 163 51 168 55 172 55 c 4
 174 55 175 55 175 52 c 6
 175 1 l 6
 175 -1 153 -6 147 -11 c 5
 148 -107 l 5
 148 -107 146 -109 138 -109 c 4
 130 -109 127 -107 127 -107 c 5
 127 -107 128 -53 128 -27 c 6
 128 -21 l 5
 128 -21 126 -18 120 -18 c 4
 113 -18 75 -32 75 -32 c 5
 75 -75 l 6
 75 -103 76 -126 76 -126 c 5
 76 -126 76 -128 68 -128 c 4
 62 -128 55 -127 55 -127 c 5
 55 -127 56 -95 56 -75 c 4
 56 -43 55 -42 49 -42 c 4
 42 -42 36 -45 34 -45 c 4
 32 -45 29 -41 29 -39 c 6
 29 9 l 6
 29 13 56 15 56 24 c 6
 56 94 l 6
 56 108 50 110 47 110 c 4
 43 110 36 107 35 107 c 4
 33 107 29 110 29 112 c 6
 29 157 l 6
 29 161 36 164 45 167 c 4
 53 169 56 171 56 201 c 4
 56 220 55 257 55 271 c 5
75 46 m 4
 75 38 77 30 85 30 c 4
 106 30 128 43 128 48 c 6
 128 127 l 6
 128 130 119 131 115 131 c 4
 103 131 77 120 76 113 c 4
 75 107 75 65 75 46 c 4
EndSplineSet
Fore
Validated: 1
EndChar

StartChar: slash
Encoding: 47 47 29
Width: 0
VWidth: 1145
Flags: HMW
LayerCount: 4
Fore
SplineSet
16 -68 m 1
 -7 -62 l 1
 112 324 l 1
 135 318 l 1
 16 -68 l 1
EndSplineSet
Validated: 1
EndChar

StartChar: plus
Encoding: 43 43 30
Width: 240
VWidth: 0
Flags: MW
LayerCount: 4
Back
SplineSet
10 105 m 5xe4
 10 129 l 5
 230 129 l 5
 230 105 l 5
 10 105 l 5xe4
108 227 m 5xe4
 132 227 l 5
 132 7 l 5
 108 7 l 5
 108 227 l 5xe4
EndSplineSet
Fore
SplineSet
108 227 m 1
 132 227 l 1
 132 129 l 1
 230 129 l 1
 230 105 l 1
 132 105 l 1
 132 7 l 1
 108 7 l 1
 108 105 l 1
 10 105 l 1
 10 129 l 1
 108 129 l 1
 108 227 l 1
EndSplineSet
Validated: 1
EndChar

StartChar: two_slash
Encoding: 57344 57344 31
Width: 0
VWidth: 0
Flags: HMW
AnchorPoint: "chain" 227 365 basemark 0
AnchorPoint: "chain" 227 0 mark 0
LayerCount: 4
Back
SplineSet
205 66 m 1
 203 28 187 -4 147 -4 c 4
 111 -4 87 36 57 36 c 4
 38 36 29 24 19 0 c 1
 -1 0 l 1
 3 42 45 95 81 118 c 0
 133 154 157 179 157 209 c 0
 157 246 131 263 101 263 c 0
 73 263 53 248 53 235 c 0
 53 224 67 223 67 202 c 0
 67 184 57 175 41 175 c 0
 23 175 9 188 9 208 c 0
 9 240 45 285 107 285 c 0
 161 285 205 253 205 207 c 0
 205 159 165 140 127 119 c 0
 117 113 81 93 57 62 c 5
 92 75 113 36 149 36 c 4
 171 36 179 50 187 71 c 1
 205 66 l 1
EndSplineSet
Fore
SplineSet
57 62 m 5
 62 64 67 65 71 65 c 4
 98 65 118 36 149 36 c 4
 163 36 176 43 186 60 c 5
 265 74 l 5
 255 153 l 5
 277 156 l 5
 287 78 l 5
 355 90 l 5
 359 67 l 5
 289 55 l 5
 299 -23 l 5
 277 -26 l 5
 268 51 l 5
 199 39 l 5
 191 9 170 -4 147 -4 c 4
 111 -4 87 36 57 36 c 4
 38 36 30 24 20 0 c 5
 0 0 l 5
 2 42 46 95 80 118 c 4
 134 154 156 179 156 209 c 4
 156 246 130 263 100 263 c 4
 74 263 52 248 52 235 c 4
 52 224 68 223 68 202 c 4
 68 184 56 175 40 175 c 4
 22 175 8 188 8 208 c 4
 8 240 46 285 106 285 c 4
 162 285 204 253 204 207 c 4
 204 159 166 140 128 119 c 4
 116 113 81 93 57 62 c 5
EndSplineSet
Validated: 1048577
Layer: 2
SplineSet
57 62 m 1
 92 75 113 36 149 36 c 0
 163 36 176 43 186 60 c 1
 202 51 l 1
 196 12 173 -4 147 -4 c 0
 111 -4 87 36 57 36 c 0
 38 36 30 24 20 0 c 1
 0 0 l 1
 2 42 46 95 80 118 c 0
 134 154 156 179 156 209 c 0
 156 246 130 263 100 263 c 0
 74 263 52 248 52 235 c 0
 52 224 68 223 68 202 c 0
 68 184 56 175 40 175 c 0
 22 175 8 188 8 208 c 0
 8 240 46 285 106 285 c 0
 162 285 204 253 204 207 c 0
 204 159 166 140 128 119 c 0
 116.2578125 112.510742188 83 95 57 62 c 1
195 38 m 1
 186 60 l 1
 355 90 l 1
 359 67 l 1
 195 38 l 1
255 153 m 1
 277 156 l 1
 299 -23 l 1
 277 -26 l 1
 255 153 l 1
EndSplineSet
Position2: "D-1" dx=0 dy=1095 dh=0 dv=0
Position2: "C-1" dx=0 dy=730 dh=0 dv=0
Position2: "B-1" dx=0 dy=365 dh=0 dv=0
Ligature2: "BaseLigatures-1" two slash
LCarets2: 1 0
EndChar

StartChar: four_slash
Encoding: 57345 57345 32
Width: 0
VWidth: 0
Flags: HMW
AnchorPoint: "chain" 234 365 basemark 0
AnchorPoint: "chain" 234 0 mark 0
LayerCount: 4
Fore
SplineSet
292 3 m 1
 269 3 l 1
 269 83 l 1
 172 83 l 1
 172 48 l 2
 172 29 192 20 206 20 c 1
 206 0 l 1
 85 0 l 1
 85 20 l 1
 95 20 l 2
 109 20 131 27 131 48 c 2
 131 83 l 1
 0 83 l 1
 0 103 l 1
 35 161 59 215 76 281 c 1
 137 281 l 1
 105 216 79 182 30 106 c 1
 131 106 l 1
 131 157 l 1
 172 201 l 1
 172 106 l 1
 269 106 l 1
 269 193 l 1
 292 193 l 1
 292 106 l 1
 358 106 l 1
 358 83 l 1
 292 83 l 1
 292 3 l 1
EndSplineSet
Validated: 1048577
Layer: 2
SplineSet
172 83 m 5
 172 48 l 6
 172 29 192 20 206 20 c 5
 206 0 l 5
 85 0 l 5
 85 20 l 5
 95 20 l 6
 109 20 131 27 131 48 c 6
 131 83 l 5
 0 83 l 5
 0 103 l 5
 35 161 59 215 76 281 c 5
 137 281 l 5
 105 216 79 182 30 106 c 5
 131 106 l 5
 131 157 l 5
 172 201 l 5
 172 106 l 5
 358 106 l 5
 358 83 l 5
 172 83 l 5
292 3 m 5xe4
 269 3 l 5
 269 193 l 5
 292 193 l 5
 292 3 l 5xe4
EndSplineSet
Position2: "D-1" dx=0 dy=1095 dh=0 dv=0
Position2: "C-1" dx=0 dy=730 dh=0 dv=0
Position2: "B-1" dx=0 dy=365 dh=0 dv=0
Ligature2: "BaseLigatures-1" four slash
LCarets2: 1 0
EndChar

StartChar: five_slash
Encoding: 57346 57346 33
Width: 0
VWidth: 0
Flags: HMW
AnchorPoint: "chain" 225 365 basemark 0
AnchorPoint: "chain" 225 0 mark 0
LayerCount: 4
Fore
SplineSet
212.421875 372.734375 m 1
 234.102539062 376.379882812 l 1
 247.682617188 299.359375 l 1
 314.3515625 314.750976562 l 1
 319.299804688 292.314453125 l 1
 251.677734375 276.703125 l 1
 265.358398438 199.116210938 l 1
 243.678710938 195.46875 l 1
 230.228515625 271.750976562 l 1
 181 260.385742188 l 2
 160.831054688 255.729492188 150.008789062 232 92 232 c 3
 76 232 62 234 44 236 c 1
 43 168 l 1
 58 174 69 180 98 180 c 0
 149 180 200 150 200 92 c 0
 200 34 154 -4 95 -4 c 0
 37 -4 0 34 0 64 c 0
 0 85 13 97 31 97 c 0
 49 97 60 84 60 67 c 0
 60 48 51 48 51 37 c 0
 51 29 63 18 87 18 c 0
 123 18 155 43 155 93 c 0
 155 138 125 155 89 156 c 0
 66 156 48 149 34 136 c 1
 21 143 l 1
 23 281 l 1
 52 278 75 276 99 276 c 0
 123.26953125 276 155.063476562 277.9765625 178 283.272460938 c 2
 226.233398438 294.407226562 l 1
 212.421875 372.734375 l 1
EndSplineSet
Validated: 1048577
Layer: 2
SplineSet
95 -4 m 4
 37 -4 0 34 0 64 c 4
 0 85 13 97 31 97 c 4
 49 97 60 84 60 67 c 4
 60 48 51 48 51 37 c 4
 51 29 63 18 87 18 c 4
 123 18 155 43 155 93 c 4
 155 138 125 155 89 156 c 4
 66 156 48 149 34 136 c 5
 21 143 l 13
 23 281 l 5
 52 278 75 276 99 276 c 4
 122 276 145 277 173 281 c 5
 178 274 l 5
 161 246 138 232 92 232 c 7
 76 232 62 234 44 236 c 13
 43 168 l 21
 58 174 69 180 98 180 c 4
 149 180 200 150 200 92 c 4
 200 34 154 -4 95 -4 c 4
163.40234375 256.323242188 m 5xe4
 158.454101562 278.759765625 l 5
 314.3515625 314.750976562 l 5
 319.299804688 292.314453125 l 5
 163.40234375 256.323242188 l 5xe4
212.421875 372.734375 m 5xe4
 234.102539062 376.379882812 l 5
 265.358398438 199.116210938 l 5
 243.678710938 195.46875 l 5
 212.421875 372.734375 l 5xe4
EndSplineSet
Position2: "D-1" dx=0 dy=1095 dh=0 dv=0
Position2: "C-1" dx=0 dy=730 dh=0 dv=0
Position2: "B-1" dx=0 dy=365 dh=0 dv=0
Ligature2: "BaseLigatures-1" five slash
LCarets2: 1 0
EndChar

StartChar: six_slash
Encoding: 57347 57347 34
Width: 0
VWidth: 0
Flags: HMW
AnchorPoint: "chain" 232 365 basemark 0
AnchorPoint: "chain" 232 0 mark 0
LayerCount: 4
Fore
SplineSet
115 135 m 0
 81 135 56 106 56 73 c 0
 56 41 78 18 109 18 c 0
 147 18 166 48 166 80 c 0
 166 112 146 135 115 135 c 0
51 122 m 1
 65 143 93 158 121 158 c 0
 176 158 207 121 207 81 c 0
 207 35 170 -4 115 -4 c 0
 40 -4 9 66 9 128 c 0
 9 183 32 224 68 250 c 1
 0 301 l 1
 13 320 l 1
 89 263 l 1
 116 278 149 285 182 285 c 1
 184 264 l 1
 157 262 132 257 111 246 c 1
 178 196 l 1
 165 177 l 1
 91 233 l 1
 66 211 51 177 51 122 c 1
EndSplineSet
Validated: 1048577
Layer: 2
SplineSet
0 301 m 5
 13 320 l 5
 178 196 l 5
 165 177 l 5
 0 301 l 5
51 122 m 5
 65 143 93 158 121 158 c 4
 176 158 207 121 207 81 c 4
 207 35 170 -4 115 -4 c 4
 40 -4 9 66 9 128 c 4
 9 231 92 285 182 285 c 5
 184 264 l 5
 108 259 51 229 51 122 c 5
115 135 m 4
 81 135 56 106 56 73 c 7
 56 41 78 18 109 18 c 4
 147 18 166 48 166 80 c 4
 166 112 146 135 115 135 c 4
EndSplineSet
Position2: "D-1" dx=0 dy=1095 dh=0 dv=0
Position2: "C-1" dx=0 dy=730 dh=0 dv=0
Position2: "B-1" dx=0 dy=365 dh=0 dv=0
Ligature2: "BaseLigatures-1" six slash
LCarets2: 1 0
EndChar

StartChar: seven_slash
Encoding: 57348 57348 35
Width: 0
VWidth: 0
Flags: HMW
AnchorPoint: "chain" 217 365 basemark 0
AnchorPoint: "chain" 217 0 mark 0
LayerCount: 4
Fore
SplineSet
24 281 m 1
 25 266 27 252 37 252 c 0
 56 252 62 285 94 285 c 0
 101 285 107 283 107 283 c 1
 132 341 l 1
 154 332 l 1
 127 271 l 1
 135 266 143 260 152 260 c 0
 165 260 175 264 182 281 c 1
 204 281 l 1
 158 135 122 119 99 0 c 1
 38 0 l 1
 80 102 129 155 169 238 c 1
 159 233 150 229 130 229 c 0
 122 229 116 231 110 234 c 1
 72 148 l 1
 51 157 l 1
 88 241 l 1
 88 241 85 242 81 242 c 0
 57 242 27 229 19 190 c 1
 0 190 l 1
 4 281 l 1
 24 281 l 1
EndSplineSet
Validated: 1048577
Layer: 2
SplineSet
72 148 m 5
 51 157 l 5
 132 341 l 5
 154 332 l 5
 72 148 l 5
24 281 m 5
 25 266 27 252 37 252 c 7
 56 252 62 285 94 285 c 4
 121 285 132 260 152 260 c 4
 165 260 175 264 182 281 c 5
 204 281 l 5
 158 135 122 119 99 0 c 5
 38 0 l 5
 80 102 129 155 169 238 c 5
 159 233 150 229 130 229 c 7
 110 229 102 242 81 242 c 7
 57 242 27 229 19 190 c 5
 0 190 l 5
 4 281 l 5
 24 281 l 5
EndSplineSet
Position2: "D-1" dx=0 dy=1095 dh=0 dv=0
Position2: "C-1" dx=0 dy=730 dh=0 dv=0
Position2: "B-1" dx=0 dy=365 dh=0 dv=0
Ligature2: "BaseLigatures-1" seven slash
LCarets2: 1 0
EndChar

StartChar: nine_slash
Encoding: 57349 57349 36
Width: 0
VWidth: 0
Flags: HMW
AnchorPoint: "chain" 224 365 basemark 0
AnchorPoint: "chain" 224 0 mark 0
LayerCount: 4
Fore
SplineSet
92 146 m 0
 124 146 151 174 151 209 c 0
 151 238 129 263 98 263 c 0
 60 263 41 234 41 206 c 0
 41 170 61 146 92 146 c 0
155 156 m 1
 142 138 114 123 86 123 c 0
 31 123 0 161 0 205 c 0
 0 245 37 285 92 285 c 0
 163 285 198 231 198 171 c 0
 198 116 174 68 133 36 c 1
 195 1 l 1
 184 -18 l 1
 113 23 l 1
 84 6 48 -4 8 -4 c 1
 7 17 l 1
 39 18 66 26 88 37 c 1
 5 85 l 1
 16 104 l 1
 108 51 l 1
 140 77 155 115 155 156 c 1
EndSplineSet
Validated: 1048577
Layer: 2
SplineSet
5 85 m 5
 16 104 l 5
 195 1 l 5
 184 -18 l 5
 5 85 l 5
155 156 m 5
 142 138 114 123 86 123 c 4
 31 123 0 161 0 205 c 4
 0 245 37 285 92 285 c 4
 163 285 198 231 198 171 c 4
 198 71 119 -4 8 -4 c 5
 7 17 l 5
 107 21 155 83 155 156 c 5
92 146 m 4
 124 146 151 174 151 209 c 7
 151 238 129 263 98 263 c 4
 60 263 41 234 41 206 c 4
 41 170 61 146 92 146 c 4
EndSplineSet
Position2: "D-1" dx=0 dy=1095 dh=0 dv=0
Position2: "C-1" dx=0 dy=730 dh=0 dv=0
Position2: "B-1" dx=0 dy=365 dh=0 dv=0
Ligature2: "BaseLigatures-1" nine slash
LCarets2: 1 0
EndChar

StartChar: b_b
Encoding: 57350 57350 37
Width: 0
VWidth: 0
Flags: HMW
AnchorPoint: "chain" -50 365 mark 0
AnchorPoint: "chain" -50 365 basemark 0
LayerCount: 4
Back
SplineSet
23 13 m 5
 54 42 87 61 87 99 c 4
 87 125 75 138 60 138 c 4
 39 138 24 109 24 109 c 5
 23 13 l 5
23 338 m 5
 23 136 l 5
 34 148 51 169 77 169 c 4
 91 169 105 163 115 151 c 5
 115 338 l 5
 136 338 l 5
 136 136 l 5
 147 148 164 169 190 169 c 4
 214 169 240 152 240 114 c 4
 240 38 171 32 124 -23 c 5
 115 -23 l 5
 115 67 l 5
 93 32 46 18 11 -23 c 5
 2 -23 l 5
 2 338 l 5
 23 338 l 5
136 13 m 5
 167 42 198 61 198 99 c 4
 198 125 186 138 172 138 c 4
 151 138 137 109 137 109 c 5
 136 13 l 5
EndSplineSet
Fore
SplineSet
22 13 m 1
 55 44 93 66 93 106 c 0
 93 134 81 147 65 147 c 0
 42 147 23 115 23 115 c 1
 22 13 l 1
22 328 m 1
 22 143 l 1
 34 156 51 177 78 177 c 0
 92 177 106 172 115 161 c 1
 115 328 l 1
 137 328 l 1
 137 143 l 1
 149 156 168 177 196 177 c 0
 223 177 249 160 249 120 c 0
 249 42 179 35 125 -23 c 1
 115 -23 l 1
 115 69 l 1
 94 34 49 19 10 -23 c 1
 0 -23 l 1
 0 328 l 1
 22 328 l 1
137 13 m 1
 170 44 208 66 208 106 c 0
 208 134 196 147 180 147 c 0
 157 147 138 115 138 115 c 1
 137 13 l 1
EndSplineSet
Validated: 1048577
Layer: 2
SplineSet
137 328 m 5
 137 143 l 5
 149 156 168 177 196 177 c 4
 223 177 249 160 249 120 c 4
 249 42 179 35 125 -23 c 5
 115 -23 l 5
 115 328 l 5
 137 328 l 5
137 13 m 5
 170 44 208 66 208 106 c 4
 208 134 196 147 180 147 c 4
 157 147 138 115 138 115 c 5
 137 13 l 5
22 328 m 5
 22 143 l 5
 34 156 51 177 78 177 c 4
 104 177 128 160 128 120 c 4
 128 42 64 35 10 -23 c 5
 0 -23 l 5
 0 328 l 5
 22 328 l 5
22 13 m 5
 55 44 93 66 93 106 c 4
 93 134 81 147 65 147 c 4
 42 147 23 115 23 115 c 5
 22 13 l 5
EndSplineSet
Position2: "acc down-1" dx=0 dy=-40 dh=0 dv=0
Position2: "B-1" dx=0 dy=365 dh=0 dv=0
Ligature2: "BaseLigatures-1" b b
LCarets2: 1 0
EndChar

StartChar: uniE01A
Encoding: 57370 57370 41
Width: 0
VWidth: 0
Flags: W
HStem: -4 22<73.7324 126.886> 263 22<75.6301 126.283>
VStem: 0 48<47.7917 232.615> 153 49<47.7917 232.615>
AnchorPoint: "chainleft" -23 365 basemark 0
AnchorPoint: "chainleft" -23 0 mark 0
LayerCount: 4
Fore
SplineSet
0 140 m 0
 0 221 39 285 101 285 c 0
 163 285 202 221 202 140 c 0
 202 59 163 -4 101 -4 c 0
 39 -4 0 59 0 140 c 0
101 263 m 3
 62 263 48 211 48 150 c 2
 48 128 l 2
 48 67 62 18 101 18 c 3
 140 18 153 67 153 128 c 2
 153 150 l 2
 153 211 140 263 101 263 c 3
EndSplineSet
Validated: 1048577
EndChar

StartChar: uniE01B
Encoding: 57371 57371 42
Width: 0
VWidth: 0
Flags: W
HStem: 0 21<21 68.4378 128.829 169>
VStem: 80 40<26.2142 210.81>
AnchorPoint: "chainleft" -23 0 mark 0
AnchorPoint: "chainleft" -23 365 basemark 0
LayerCount: 4
Fore
SplineSet
120 56 m 2
 120 30 138 21 156 21 c 2
 169 21 l 17
 169 0 l 9
 21 0 l 17
 21 21 l 9
 39 21 l 2
 57 21 80 32 80 57 c 2
 80 202 l 2
 80 210 74 214 68 214 c 0
 65 214 62 213 60 211 c 2
 12 171 l 1
 0 186 l 9
 90 281 l 17
 120 281 l 9
 120 56 l 2
EndSplineSet
Validated: 1048577
EndChar

StartChar: uniE01C
Encoding: 57372 57372 43
Width: 0
VWidth: 0
Flags: W
HStem: -4 40<101.734 181.148> 36 28.6531<44.7041 92.0488> 263 22<65.8671 137.683>
VStem: 10 44<189.764 254.487> 158 48<162.6 253.561> 188 18<52.1095 67.9444>
AnchorPoint: "chainleft" -23 0 mark 0
AnchorPoint: "chainleft" -23 365 basemark 0
LayerCount: 4
Fore
SplineSet
206 66 m 1xb4
 204 28 188 -4 148 -4 c 0xb4
 112 -4 88 36 58 36 c 0
 39 36 30 24 20 0 c 1
 0 0 l 1
 4 42 46 95 82 118 c 0
 134 154 158 179 158 209 c 0
 158 246 132 263 102 263 c 0
 74 263 54 248 54 235 c 0
 54 224 68 223 68 202 c 0
 68 184 58 175 42 175 c 0
 24 175 10 188 10 208 c 0
 10 240 46 285 108 285 c 0
 162 285 206 253 206 207 c 0
 206 159 166 140 128 119 c 0
 118 113 82 93 58 62 c 1
 63 63.8571428571 67.7142857143 64.6530612245 72.2274052478 64.6530612245 c 0x78
 99.306122449 64.6530612245 119.142857143 36 150 36 c 0
 172 36 180 50 188 71 c 1
 206 66 l 1xb4
EndSplineSet
Validated: 1048577
EndChar

StartChar: uniE01D
Encoding: 57373 57373 44
Width: 0
VWidth: 0
Flags: W
HStem: -4 21<58.3071 129.425> 133 21<54 119.59> 265 20<60.6995 131.515>
VStem: 0 48<23.9567 83.3467> 12 42<200.74 260.637> 156 46<29.7454 116.446 173.519 252.937>
AnchorPoint: "chainleft" -23 0 mark 0
AnchorPoint: "chainleft" -23 365 basemark 0
LayerCount: 4
Fore
SplineSet
28 98 m 0xf4
 44 98 56 86 56 70 c 0
 56 57 48 49 48 41 c 0xf4
 48 29 70 17 94 17 c 0
 126 17 156 37 156 75 c 0
 156 110 126 133 68 133 c 2
 54 133 l 1
 54 154 l 1
 68 154 l 2
 120 154 154 178 154 214 c 0
 154 246 128 265 94 265 c 0
 68 265 54 253 54 244 c 0
 54 236 66 232 66 212 c 0
 66 199 54 188 38 188 c 0
 24 188 12 200 12 220 c 0xec
 12 251 48 285 102 285 c 0
 152 285 198 257 198 215 c 0
 198 185 176 161 148 151 c 0
 144 150 140 150 140 146 c 0
 140 143 142 143 146 141 c 0
 178 129 202 105 202 74 c 0
 202 36 166 -4 100 -4 c 0
 40 -4 0 34 0 66 c 0
 0 86 12 98 28 98 c 0xf4
EndSplineSet
Validated: 1048577
EndChar

StartChar: uniE01E
Encoding: 57374 57374 45
Width: 0
VWidth: 0
Flags: W
HStem: 0 20<85 123.301 180.159 206> 83 23<30 131 172 218>
VStem: 76 61<242.133 281> 131 41<22.7658 83 106 157>
AnchorPoint: "chainleft" -23 0 mark 0
AnchorPoint: "chainleft" -23 365 basemark 0
LayerCount: 4
Fore
SplineSet
172 83 m 1xd0
 172 48 l 2
 172 29 192 20 206 20 c 1
 206 0 l 1
 85 0 l 1
 85 20 l 1
 95 20 l 2
 109 20 131 27 131 48 c 2
 131 83 l 1xd0
 0 83 l 1
 0 103 l 1
 35 161 59 215 76 281 c 1
 137 281 l 1xe0
 105 216 79 182 30 106 c 1
 131 106 l 1
 131 157 l 1
 172 201 l 1
 172 106 l 1
 218 106 l 1
 218 83 l 1
 172 83 l 1xd0
EndSplineSet
Validated: 1048577
EndChar

StartChar: uniE01F
Encoding: 57375 57375 46
Width: 0
VWidth: 0
Flags: W
HStem: -4 22<55.2817 124.219> 156 24<44.4555 130.865> 232 44<44 161.854>
VStem: 0 51<22.3858 80.9387> 21 22<168 236> 155 45<35.8666 142.308>
AnchorPoint: "chainleft" -23 0 mark 0
AnchorPoint: "chainleft" -23 365 basemark 0
LayerCount: 4
Fore
SplineSet
95 -4 m 0xec
 37 -4 0 34 0 64 c 0
 0 85 13 97 31 97 c 0
 49 97 60 84 60 67 c 0
 60 48 51 48 51 37 c 0xf4
 51 29 63 18 87 18 c 0
 123 18 155 43 155 93 c 0
 155 138 125 155 89 156 c 0
 66 156 48 149 34 136 c 1
 21 143 l 9
 23 281 l 1
 52 278 75 276 99 276 c 0
 122 276 145 277 173 281 c 1
 178 274 l 1
 161 246 138 232 92 232 c 3
 76 232 62 234 44 236 c 9
 43 168 l 17
 58 174 69 180 98 180 c 0
 149 180 200 150 200 92 c 0
 200 34 154 -4 95 -4 c 0xec
EndSplineSet
Validated: 1048577
EndChar

StartChar: uniE020
Encoding: 57376 57376 47
Width: 0
VWidth: 0
Flags: W
HStem: -4 22<68.1374 133.137> 145 23<73.483 137.964> 264 21<80.0285 131.853>
VStem: 0 48<45.4048 227.465> 130 57<200.848 263.145> 157 41<31.0916 134.619>
AnchorPoint: "chainleft" -23 0 mark 0
AnchorPoint: "chainleft" -23 365 basemark 0
LayerCount: 4
Fore
SplineSet
158 200 m 0xf8
 141 200 130 212 130 228 c 0xf8
 130 236 133 242 133 250 c 0
 133 257 125 264 111 264 c 3
 56 264 43 192 43 132 c 1
 57 153 84 168 112 168 c 0
 167 168 198 130 198 86 c 0xf4
 198 34 161 -4 106 -4 c 0
 31 -4 0 66 0 138 c 0
 0 233 55 285 110 285 c 3
 159 285 187 258 187 231 c 0
 187 214 176 200 158 200 c 0xf8
106 145 m 0
 74 145 48 117 48 80 c 3
 48 41 69 18 100 18 c 0
 138 18 157 47 157 85 c 0xf4
 157 121 137 145 106 145 c 0
EndSplineSet
Validated: 1048577
EndChar

StartChar: uniE021
Encoding: 57377 57377 48
Width: 0
VWidth: 0
Flags: W
HStem: 0 21G<33 110.5> 220 40<114.541 166.669> 239 10<37 76>
VStem: 0 19<185 208.583 256.143 281> 33 66<0 44.2625>
AnchorPoint: "chainleft" -23 0 mark 0
AnchorPoint: "chainleft" -23 365 basemark 0
LayerCount: 4
Fore
SplineSet
24 281 m 1xb8
 25 266 27 249 37 249 c 3xb8
 56 249 62 285 94 285 c 0
 121 285 132 260 152 260 c 0
 165 260 175 264 182 281 c 1
 204 281 l 1
 158 135 122 119 99 0 c 1
 33 0 l 1
 75 102 127 151 167 234 c 1
 156 226 149 220 133 220 c 3xd8
 112 220 104 239 76 239 c 3
 59 239 27 224 19 185 c 1
 0 185 l 1
 4 281 l 1
 24 281 l 1xb8
EndSplineSet
Validated: 1048577
EndChar

StartChar: uniE022
Encoding: 57378 57378 49
Width: 0
VWidth: 1610
Flags: W
HStem: -4 25<53.2978 142.747> 261 24<57.7418 138.402>
VStem: 0 30<40.3812 106.931> 8 36<188.933 251.764> 156 31<176.584 247.688> 160 36<32.8459 97.0733>
AnchorPoint: "chainleft" -23 0 mark 0
AnchorPoint: "chainleft" -23 365 basemark 0
LayerCount: 4
Fore
SplineSet
44 223 m 0xd8
 44 192 81 174 116 158 c 1
 146 173 156 196 156 214 c 0
 156 241 134 261 100 261 c 0
 69 261 44 247 44 223 c 0xd8
160 63 m 0xe4
 160 100 113 115 81 129 c 1
 54 122 30 99 30 72 c 0
 30 45 56 21 101 21 c 0
 136 21 160 41 160 63 c 0xe4
55 143 m 1
 35 155 8 178 8 210 c 0
 8 248 44 285 100 285 c 0
 153 285 187 251 187 212 c 0xd8
 187 186 170 165 142 147 c 1
 169 131 196 109 196 77 c 0
 196 27 155 -4 101 -4 c 0
 41 -4 0 28 0 70 c 0
 0 101 25 129 55 143 c 1
EndSplineSet
Validated: 1048577
EndChar

StartChar: uniE023
Encoding: 57379 57379 50
Width: 0
VWidth: 0
Flags: W
HStem: -4 23<62.1302 113.495> 113 23<61.1359 124.675> 263 22<64.299 129.672>
VStem: 0 41<147.053 250.17> 2 56<19.5018 74.2538> 151 47<64.71 238.177>
AnchorPoint: "chainleft" -23 0 mark 0
AnchorPoint: "chainleft" -23 365 basemark 0
LayerCount: 4
Fore
SplineSet
2 45 m 0xec
 2 62 12 75 31 75 c 0
 46 75 57 66 58 49 c 0xec
 59 30 64 19 82 19 c 3
 142 19 154 115 155 149 c 1
 141 128 114 113 86 113 c 0
 31 113 0 151 0 200 c 0xf4
 0 245 37 285 92 285 c 0
 165 285 198 221 198 153 c 0
 198 58 138 -4 78 -4 c 3
 28 -4 2 20 2 45 c 0xec
92 136 m 0
 124 136 151 164 151 201 c 3
 151 240 129 263 98 263 c 0
 60 263 41 234 41 201 c 0xf4
 41 160 61 136 92 136 c 0
EndSplineSet
Validated: 1048577
EndChar

StartChar: numbersign_period
Encoding: 57352 57352 52
Width: 0
VWidth: 0
Flags: W
VStem: 26 22<-85 -3 45 137 186 274> 102 22<-63 22 71 163 212 294>
AnchorPoint: "chain" 200 0 mark 0
AnchorPoint: "chain" 200 365 basemark 0
LayerCount: 4
Fore
SplineSet
26 274 m 1
 48 274 l 1
 48 186 l 1
 102 204 l 1
 102 294 l 1
 124 294 l 1
 124 212 l 1
 150 220 l 1
 150 178 l 1
 124 170 l 1
 124 71 l 1
 150 79 l 1
 150 38 l 1
 124 29 l 1
 124 -63 l 1
 102 -63 l 1
 102 22 l 1
 48 4 l 1
 48 -85 l 1
 26 -85 l 1
 26 -3 l 1
 0 -11 l 1
 0 30 l 1
 26 38 l 1
 26 137 l 1
 0 129 l 1
 0 171 l 1
 26 178 l 1
 26 274 l 1
102 163 m 1
 48 145 l 1
 48 45 l 1
 102 63 l 1
 102 163 l 1
EndSplineSet
Validated: 1048577
LCarets2: 1 0
Ligature2: "BaseLigatures-1" numbersign period
EndChar

StartChar: b_period
Encoding: 57353 57353 53
Width: 0
VWidth: 0
Flags: W
HStem: 123 30<42.5212 91.0673>
VStem: 0 22<-11 91 119 304> 97 43<37.7083 121.698>
AnchorPoint: "chain" 185 365 basemark 0
AnchorPoint: "chain" 185 0 mark 0
LayerCount: 4
Fore
SplineSet
22 304 m 1
 22 119 l 1
 34 132 54 153 84 153 c 0
 112 153 140 136 140 96 c 0
 140 18 64 11 10 -47 c 1
 0 -47 l 1
 0 304 l 1
 22 304 l 1
22 -11 m 1
 57 20 97 42 97 82 c 0
 97 110 84 123 67 123 c 0
 43 123 23 91 23 91 c 1
 22 -11 l 1
EndSplineSet
Validated: 1048577
LCarets2: 1 0
Ligature2: "BaseLigatures-1" b period
EndChar

StartChar: n_period
Encoding: 57354 57354 54
Width: 0
VWidth: 0
Flags: W
HStem: -1 21G<0 87.619>
VStem: 0 22<49 144 188 302> 92 22<-91 20 67 161>
AnchorPoint: "chain" 180 0 mark 0
AnchorPoint: "chain" 180 365 basemark 0
LayerCount: 4
Fore
SplineSet
0 302 m 1
 22 302 l 1
 22 188 l 1
 114 211 l 1
 114 -91 l 1
 92 -91 l 1
 92 20 l 1
 0 -1 l 1
 0 302 l 1
22 144 m 1
 22 49 l 1
 92 67 l 1
 92 161 l 1
 22 144 l 1
EndSplineSet
Validated: 1048577
LCarets2: 1 0
Ligature2: "BaseLigatures-1" n period
EndChar

StartChar: b_b_period
Encoding: 57355 57355 56
Width: 0
VWidth: 0
Flags: W
HStem: 117 30<40.9059 87.8815 157.193 202.641>
VStem: 0 22<-17 85 113 298> 93 44<27.4761 85 113 116.223> 115 22<-17 39 131 298> 208 41<31.7083 115.809>
AnchorPoint: "chain" 220 0 mark 0
AnchorPoint: "chain" 220 365 basemark 0
LayerCount: 4
Fore
SplineSet
22 -17 m 1xe8
 55 14 93 36 93 76 c 0
 93 104 81 117 65 117 c 0
 42 117 23 85 23 85 c 1
 22 -17 l 1xe8
22 298 m 1
 22 113 l 1
 34 126 51 147 78 147 c 0
 92 147 106 142 115 131 c 1
 115 298 l 1
 137 298 l 1xd8
 137 113 l 1xe8
 149 126 168 147 196 147 c 0
 223 147 249 130 249 90 c 0
 249 12 179 5 125 -53 c 1
 115 -53 l 1
 115 39 l 1xd8
 94 4 49 -11 10 -53 c 1
 0 -53 l 1
 0 298 l 1
 22 298 l 1
137 -17 m 1
 170 14 208 36 208 76 c 0
 208 104 196 117 180 117 c 0
 157 117 138 85 138 85 c 1
 137 -17 l 1
EndSplineSet
Validated: 1048577
LCarets2: 2 0 0
Ligature2: "BaseLigatures-1" b b period
EndChar

StartChar: x_period
Encoding: 57356 57356 57
Width: 0
VWidth: 0
Flags: W
HStem: 61 49<3 49 127 173> 129 44<66.5283 109.472> 189 49<3 49 127 173>
VStem: 0 49<64 110 189 236> 66 44<129.808 172.243> 127 49<64 110 189 236>
CounterMasks: 1 1c
AnchorPoint: "chain" 210 0 mark 0
AnchorPoint: "chain" 210 365 basemark 0
LayerCount: 4
Fore
SplineSet
88 129 m 0
 69 129 49 98 49 64 c 1
 0 61 l 1
 3 110 l 1
 37 110 66 131 66 150 c 0
 66 169 37 189 3 189 c 1
 0 238 l 1
 49 236 l 1
 49 202 69 173 88 173 c 0
 107 173 127 202 127 236 c 1
 176 238 l 1
 173 189 l 1
 139 189 110 169 110 150 c 0
 110 131 139 110 173 110 c 1
 176 61 l 1
 127 64 l 1
 127 98 107 129 88 129 c 0
EndSplineSet
Validated: 1048577
LCarets2: 1 0
Ligature2: "BaseLigatures-1" x period
EndChar
